<!DOCTYPE svg PUBLIC "-//W3C//DTD SVG 20010904//EN" "http://www.w3.org/TR/2001/REC-SVG-20010904/DTD/svg10.dtd">
<svg version="1.0" xmlns="http://www.w3.org/2000/svg" width="238px" height="222px" viewBox="0 0 2380 2220" preserveAspectRatio="xMidYMid meet">
<g id="layer101" fill="#000000" stroke="none">
</g>
<g id="layer102" fill="#2a2a2a" stroke="none">
<path d="M1150 2025 l0 -35 435 0 435 0 0 -835 0 -835 -820 0 -820 0 0 425 0 425 -35 0 -35 0 0 -460 0 -460 890 0 890 0 0 905 0 905 -470 0 -470 0 0 -35z"/>
<path d="M780 1490 c0 -22 5 -25 63 -35 l37 -6 0 -358 c0 -390 3 -371 -55 -371 -37 0 -55 -11 -55 -32 0 -20 5 -20 268 -15 154 3 287 10 315 17 65 16 136 67 161 115 25 49 27 151 3 206 -20 45 -72 96 -114 111 -18 7 -33 14 -33 18 0 3 50 73 110 155 102 140 113 151 152 161 32 8 44 16 46 32 3 22 1 22 -130 22 l-133 0 -110 -167 c-60 -91 -116 -172 -123 -180 -8 -7 -35 -13 -63 -13 l-49 0 0 149 0 149 53 9 c43 7 53 12 55 31 l3 22 -200 0 c-195 0 -201 -1 -201 -20z m507 -426 c44 -32 58 -70 58 -154 0 -133 -35 -164 -189 -176 l-86 -7 0 182 0 183 94 -4 c77 -2 100 -7 123 -24z"/>
</g>


</svg>